<svg width="183" height="221" viewBox="0 0 183 221" fill="none" xmlns="http://www.w3.org/2000/svg">
<path d="M136.358 124.729C143.86 114.836 147.825 103.028 147.825 90.5805C147.825 75.3189 141.84 61.0123 130.971 50.2959C120.104 39.582 105.701 33.7961 90.438 34.0166C75.6464 34.2259 61.7107 40.1612 51.1979 50.7292C40.6855 61.2967 34.8223 75.2638 34.6878 90.0568C34.5728 102.739 38.5614 114.759 46.2224 124.819C58.6592 141.151 65.5088 161.156 65.5088 181.149V203.026C65.5088 212.73 73.4033 220.624 83.1072 220.624H99.4765C109.18 220.624 117.075 212.729 117.075 203.026V181.151C117.075 160.936 123.695 141.426 136.358 124.729ZM51.9928 120.426C45.3162 111.658 41.8402 101.18 41.9403 90.1231C42.1815 63.5605 63.9833 41.6447 90.5405 41.269C103.863 41.0901 116.406 46.1212 125.879 55.4615C135.354 64.8037 140.572 77.2762 140.572 90.581C140.572 101.432 137.117 111.725 130.578 120.347C117.236 137.94 110.053 158.465 109.759 179.787H72.7515C72.4484 158.672 65.1036 137.642 51.9928 120.426ZM72.7617 200.568V197.632L109.823 201.878V203.026C109.823 203.63 109.76 204.219 109.66 204.795L72.7617 200.568ZM72.7617 190.332V187.04H109.823V194.578L72.7617 190.332ZM83.1072 213.372C79.2115 213.372 75.8147 211.206 74.0503 208.016L105.27 211.593C103.616 212.715 101.622 213.372 99.477 213.372H83.1072V213.372Z" fill="white"/>
<path d="M55.3949 96.0357C55.112 94.1379 54.9771 92.1883 54.995 90.2416C55.0134 88.2389 53.4047 86.6007 51.4019 86.5823C49.4127 86.5649 47.761 88.1726 47.7426 90.1754C47.7213 92.5011 47.8823 94.8327 48.2213 97.1058C48.4896 98.9054 50.0369 100.198 51.8037 100.198C51.9817 100.198 52.162 100.185 52.3433 100.158C54.3239 99.8619 55.6903 98.0167 55.3949 96.0357Z" fill="white"/>
<path d="M76.7363 151.12C77.1115 151.12 77.4935 151.061 77.8697 150.938C79.7724 150.312 80.8076 148.262 80.1819 146.36C76.1628 134.138 70.1729 122.751 62.3785 112.516C61.0903 110.824 59.9487 109.022 58.986 107.159C58.0664 105.38 55.8784 104.684 54.099 105.603C52.3201 106.523 51.6234 108.711 52.5431 110.49C53.6987 112.725 55.0661 114.885 56.6085 116.911C63.9127 126.502 69.5259 137.172 73.2921 148.626C73.794 150.152 75.2122 151.12 76.7363 151.12Z" fill="white"/>
<path d="M129.36 102.998C127.521 102.206 125.387 103.055 124.595 104.894C123.446 107.562 121.959 110.107 120.176 112.458C118.966 114.054 119.278 116.329 120.874 117.539C121.529 118.036 122.299 118.276 123.063 118.276C124.159 118.276 125.242 117.781 125.955 116.84C128.092 114.023 129.875 110.969 131.256 107.764C132.048 105.924 131.2 103.791 129.36 102.998Z" fill="white"/>
<path d="M91.2556 54.3194C111.25 54.3194 127.517 70.5867 127.517 90.5815C127.517 91.7183 127.465 92.8637 127.362 93.986C127.179 95.9806 128.647 97.7454 130.642 97.9287C130.754 97.9388 130.866 97.9442 130.977 97.9442C132.831 97.9442 134.412 96.5308 134.584 94.6489C134.707 93.3071 134.77 91.9388 134.77 90.5815C134.77 66.5875 115.25 47.0665 91.2556 47.0665C89.2528 47.0665 87.6292 48.6902 87.6292 50.693C87.6292 52.6957 89.2528 54.3194 91.2556 54.3194Z" fill="white"/>
<path d="M91.2556 27.7555C93.2584 27.7555 94.882 26.1318 94.882 24.129V3.82091C94.882 1.81814 93.2584 0.194458 91.2556 0.194458C89.2528 0.194458 87.6292 1.81814 87.6292 3.82091V24.129C87.6292 26.1318 89.2528 27.7555 91.2556 27.7555Z" fill="white"/>
<path d="M54.5676 34.9213C55.2397 36.0852 56.4582 36.7355 57.7115 36.7355C58.3265 36.7355 58.9503 36.5789 59.5213 36.2491C61.2557 35.2477 61.8505 33.0298 60.8491 31.2954L50.6999 13.7143C49.698 11.9794 47.4805 11.3852 45.7461 12.3866C44.0117 13.388 43.417 15.6059 44.4184 17.3403L54.5676 34.9213Z" fill="white"/>
<path d="M168.755 131.769L151.174 121.62C149.439 120.618 147.221 121.213 146.22 122.948C145.219 124.682 145.813 126.9 147.548 127.902L165.129 138.051C165.7 138.381 166.323 138.537 166.939 138.537C168.192 138.537 169.411 137.886 170.083 136.723C171.084 134.989 170.489 132.771 168.755 131.769Z" fill="white"/>
<path d="M13.756 50.6583L31.337 60.8075C31.9081 61.1373 32.5313 61.2939 33.1469 61.2939C34.4002 61.2939 35.6191 60.6431 36.2907 59.4797C37.2921 57.7453 36.6979 55.5274 34.963 54.526L17.382 44.3768C15.6476 43.3749 13.4296 43.9697 12.4282 45.7045C11.4268 47.439 12.0211 49.6564 13.756 50.6583Z" fill="white"/>
<path d="M178.648 87.587H158.34C156.337 87.587 154.713 89.2107 154.713 91.2135C154.713 93.2163 156.337 94.8399 158.34 94.8399H178.648C180.65 94.8399 182.274 93.2163 182.274 91.2135C182.274 89.2107 180.651 87.587 178.648 87.587Z" fill="white"/>
<path d="M27.7971 91.2135C27.7971 89.2107 26.1734 87.587 24.1707 87.587H3.86256C1.8598 87.587 0.236115 89.2107 0.236115 91.2135C0.236115 93.2163 1.8598 94.8399 3.86256 94.8399H24.1707C26.1739 94.8399 27.7971 93.2163 27.7971 91.2135Z" fill="white"/>
<path d="M149.364 61.2938C149.979 61.2938 150.603 61.1372 151.174 60.8074L168.755 50.6582C170.489 49.6568 171.084 47.4389 170.082 45.7045C169.081 43.9701 166.863 43.3753 165.129 44.3767L147.548 54.5259C145.813 55.5273 145.219 57.7452 146.22 59.4797C146.892 60.643 148.111 61.2938 149.364 61.2938Z" fill="white"/>
<path d="M31.337 121.62L13.756 131.769C12.0216 132.771 11.4268 134.989 12.4282 136.723C13.0998 137.886 14.3188 138.537 15.5721 138.537C16.1872 138.537 16.8109 138.381 17.3819 138.051L34.963 127.902C36.6974 126.9 37.2921 124.682 36.2907 122.948C35.2898 121.213 33.0704 120.619 31.337 121.62Z" fill="white"/>
<path d="M122.99 36.2491C123.561 36.5789 124.184 36.7355 124.799 36.7355C126.053 36.7355 127.272 36.0847 127.943 34.9213L138.092 17.3403C139.094 15.6059 138.499 13.388 136.765 12.3866C135.031 11.3852 132.812 11.9794 131.811 13.7143L121.662 31.2954C120.66 33.0298 121.255 35.2477 122.99 36.2491Z" fill="white"/>
</svg>
